<?xml version="1.0" encoding="UTF-8" standalone="no"?>
<!DOCTYPE svg PUBLIC "-//W3C//DTD SVG 1.1//EN" "http://www.w3.org/Graphics/SVG/1.1/DTD/svg11.dtd">
<svg width="100%" height="100%" viewBox="0 0 507 175" version="1.1" xmlns="http://www.w3.org/2000/svg" xmlns:xlink="http://www.w3.org/1999/xlink" xml:space="preserve" xmlns:serif="http://www.serif.com/" style="fill-rule:evenodd;clip-rule:evenodd;stroke-linecap:round;stroke-linejoin:round;stroke-miterlimit:1.5;">
    <g id="Artboard1" transform="matrix(1,0,0,1,-3.87298,-136.122)">
        <rect x="3.873" y="136.122" width="506.941" height="174.085" style="fill:none;"/>
        <clipPath id="_clip1">
            <rect x="3.873" y="136.122" width="506.941" height="174.085"/>
        </clipPath>
        <g clip-path="url(#_clip1)">
            <g id="Background" transform="matrix(0.953452,0,0,0.974047,1.09163,6.02181)">
                <path d="M507.818,164.226C507.818,150.428 496.374,139.225 482.277,139.225L30.238,139.225C16.142,139.225 4.697,150.428 4.697,164.226L4.697,282.598C4.697,296.397 16.142,307.599 30.238,307.599L482.277,307.599C496.374,307.599 507.818,296.397 507.818,282.598L507.818,164.226Z" style="stroke:rgb(136,136,136);stroke-width:8.3px;"/>
            </g>
            <g id="Icon" transform="matrix(4.90897,0,0,4.90897,16.0074,144.929)">
                <path d="M27,5L5,5C3.903,5 3,5.903 3,7L3,25C3,26.097 3.903,27 5,27L27,27C28.097,27 29,26.097 29,25L29,7C29,5.903 28.097,5 27,5ZM27,25L5,25L5,7L27,7L27,25ZM10,10.5C10,11.323 9.323,12 8.5,12C7.677,12 7,11.323 7,10.5C7,9.677 7.677,9 8.5,9C9.323,9 10,9.677 10,10.5ZM15,10.5C15,11.323 14.323,12 13.5,12C12.677,12 12,11.323 12,10.5C12,9.677 12.677,9 13.5,9C14.323,9 15,9.677 15,10.5Z" style="fill:white;fill-rule:nonzero;"/>
            </g>
            <g transform="matrix(1,0,0,1,-25.7073,24.4284)">
                <text x="201.796px" y="181.093px" style="font-family:'OpenSansRoman-Bold', 'Open Sans';font-size:40px;fill:white;">Open</text>
                <g transform="matrix(64,0,0,64,471.39,245.093)">
                </g>
                <text x="201.796px" y="245.093px" style="font-family:'OpenSansRoman-Bold', 'Open Sans';font-size:64px;fill:white;">Web App</text>
            </g>
        </g>
    </g>
</svg>
