<?xml version="1.0" encoding="UTF-8" standalone="no"?>
<!DOCTYPE svg PUBLIC "-//W3C//DTD SVG 1.1//EN" "http://www.w3.org/Graphics/SVG/1.1/DTD/svg11.dtd">
<svg width="100%" height="100%" viewBox="0 0 507 175" version="1.1" xmlns="http://www.w3.org/2000/svg" xmlns:xlink="http://www.w3.org/1999/xlink" xml:space="preserve" xmlns:serif="http://www.serif.com/" style="fill-rule:evenodd;clip-rule:evenodd;stroke-linecap:round;stroke-linejoin:round;stroke-miterlimit:1.5;">
    <g id="Artboard1" transform="matrix(1,0,0,1,-3.87298,-136.122)">
        <rect x="3.873" y="136.122" width="506.941" height="174.085" style="fill:none;"/>
        <clipPath id="_clip1">
            <rect x="3.873" y="136.122" width="506.941" height="174.085"/>
        </clipPath>
        <g clip-path="url(#_clip1)">
            <g id="Background" transform="matrix(0.953452,0,0,0.974047,1.09163,6.02181)">
                <path d="M507.818,164.226C507.818,150.428 496.374,139.225 482.277,139.225L30.238,139.225C16.142,139.225 4.697,150.428 4.697,164.226L4.697,282.598C4.697,296.397 16.142,307.599 30.238,307.599L482.277,307.599C496.374,307.599 507.818,296.397 507.818,282.598L507.818,164.226Z" style="stroke:rgb(136,136,136);stroke-width:8.3px;"/>
            </g>
            <g id="Icon" transform="matrix(4.90897,0,0,4.90897,16.0074,144.929)">
                <path d="M27,5L5,5C3.903,5 3,5.903 3,7L3,25C3,26.097 3.903,27 5,27L27,27C28.097,27 29,26.097 29,25L29,7C29,5.903 28.097,5 27,5ZM27,25L5,25L5,7L27,7L27,25ZM10,10.5C10,11.323 9.323,12 8.5,12C7.677,12 7,11.323 7,10.5C7,9.677 7.677,9 8.5,9C9.323,9 10,9.677 10,10.5ZM15,10.5C15,11.323 14.323,12 13.5,12C12.677,12 12,11.323 12,10.5C12,9.677 12.677,9 13.5,9C14.323,9 15,9.677 15,10.5Z" style="fill:white;fill-rule:nonzero;"/>
            </g>
            <g transform="matrix(1,0,0,1,-25.7073,24.4284)">
                <g transform="matrix(40,0,0,40,201.796,181.093)">
                    <path d="M0.738,-0.358C0.738,-0.303 0.731,-0.253 0.717,-0.208C0.704,-0.163 0.683,-0.124 0.655,-0.091C0.627,-0.059 0.592,-0.034 0.549,-0.016C0.507,0.001 0.456,0.01 0.398,0.01C0.34,0.01 0.289,0.001 0.247,-0.016C0.204,-0.034 0.169,-0.059 0.141,-0.091C0.113,-0.124 0.092,-0.163 0.079,-0.208C0.065,-0.253 0.058,-0.304 0.058,-0.359C0.058,-0.433 0.07,-0.497 0.094,-0.552C0.119,-0.607 0.156,-0.649 0.207,-0.68C0.257,-0.71 0.321,-0.725 0.399,-0.725C0.476,-0.725 0.54,-0.71 0.59,-0.68C0.64,-0.649 0.677,-0.607 0.701,-0.552C0.726,-0.497 0.738,-0.432 0.738,-0.358ZM0.217,-0.358C0.217,-0.308 0.223,-0.265 0.236,-0.229C0.248,-0.193 0.268,-0.166 0.294,-0.146C0.321,-0.127 0.356,-0.117 0.398,-0.117C0.441,-0.117 0.476,-0.127 0.502,-0.146C0.529,-0.166 0.549,-0.193 0.561,-0.229C0.573,-0.265 0.579,-0.308 0.579,-0.358C0.579,-0.433 0.565,-0.492 0.537,-0.535C0.509,-0.578 0.463,-0.599 0.399,-0.599C0.356,-0.599 0.322,-0.589 0.295,-0.57C0.268,-0.551 0.248,-0.523 0.236,-0.487C0.223,-0.451 0.217,-0.408 0.217,-0.358Z" style="fill:white;fill-rule:nonzero;"/>
                </g>
                <g transform="matrix(40,0,0,40,232.909,181.093)">
                    <path d="M0.382,-0.556C0.443,-0.556 0.493,-0.532 0.531,-0.484C0.569,-0.437 0.588,-0.366 0.588,-0.274C0.588,-0.212 0.579,-0.16 0.561,-0.118C0.543,-0.076 0.518,-0.044 0.487,-0.022C0.455,-0.001 0.419,0.01 0.378,0.01C0.352,0.01 0.329,0.006 0.31,-0C0.291,-0.007 0.275,-0.016 0.262,-0.026C0.248,-0.037 0.237,-0.048 0.227,-0.06L0.219,-0.06C0.222,-0.047 0.224,-0.034 0.225,-0.02C0.226,-0.006 0.227,0.007 0.227,0.02L0.227,0.24L0.078,0.24L0.078,-0.546L0.199,-0.546L0.22,-0.475L0.227,-0.475C0.237,-0.49 0.249,-0.503 0.263,-0.516C0.277,-0.528 0.294,-0.538 0.313,-0.545C0.333,-0.552 0.356,-0.556 0.382,-0.556ZM0.334,-0.437C0.308,-0.437 0.287,-0.432 0.272,-0.421C0.257,-0.41 0.246,-0.394 0.239,-0.373C0.232,-0.351 0.228,-0.324 0.227,-0.291L0.227,-0.275C0.227,-0.24 0.23,-0.21 0.237,-0.186C0.244,-0.161 0.255,-0.143 0.271,-0.13C0.287,-0.117 0.308,-0.111 0.336,-0.111C0.359,-0.111 0.377,-0.117 0.392,-0.13C0.407,-0.143 0.418,-0.161 0.425,-0.186C0.432,-0.21 0.436,-0.24 0.436,-0.276C0.436,-0.329 0.428,-0.369 0.411,-0.396C0.395,-0.424 0.369,-0.437 0.334,-0.437Z" style="fill:white;fill-rule:nonzero;"/>
                </g>
                <g transform="matrix(40,0,0,40,257.382,181.093)">
                    <path d="M0.303,-0.556C0.354,-0.556 0.397,-0.546 0.434,-0.527C0.47,-0.508 0.498,-0.48 0.518,-0.443C0.538,-0.406 0.548,-0.361 0.548,-0.308L0.548,-0.236L0.196,-0.236C0.197,-0.194 0.21,-0.161 0.234,-0.137C0.257,-0.113 0.29,-0.101 0.332,-0.101C0.367,-0.101 0.399,-0.105 0.428,-0.112C0.457,-0.119 0.486,-0.13 0.517,-0.144L0.517,-0.029C0.49,-0.015 0.462,-0.006 0.432,0C0.403,0.007 0.367,0.01 0.325,0.01C0.271,0.01 0.222,-0 0.18,-0.021C0.138,-0.041 0.105,-0.071 0.081,-0.113C0.057,-0.154 0.045,-0.206 0.045,-0.269C0.045,-0.333 0.056,-0.386 0.077,-0.428C0.099,-0.471 0.129,-0.503 0.168,-0.524C0.207,-0.545 0.252,-0.556 0.303,-0.556ZM0.304,-0.45C0.275,-0.45 0.251,-0.441 0.232,-0.422C0.213,-0.404 0.202,-0.375 0.199,-0.335L0.408,-0.335C0.408,-0.357 0.404,-0.377 0.396,-0.394C0.389,-0.411 0.377,-0.425 0.362,-0.435C0.347,-0.445 0.328,-0.45 0.304,-0.45Z" style="fill:white;fill-rule:nonzero;"/>
                </g>
                <g transform="matrix(40,0,0,40,279.843,181.093)">
                    <path d="M0.388,-0.556C0.446,-0.556 0.493,-0.54 0.529,-0.509C0.564,-0.477 0.582,-0.426 0.582,-0.356L0.582,-0L0.433,-0L0.433,-0.319C0.433,-0.358 0.426,-0.387 0.412,-0.407C0.398,-0.427 0.375,-0.437 0.345,-0.437C0.3,-0.437 0.269,-0.422 0.252,-0.391C0.235,-0.36 0.227,-0.315 0.227,-0.257L0.227,-0L0.078,-0L0.078,-0.546L0.192,-0.546L0.212,-0.476L0.22,-0.476C0.232,-0.495 0.247,-0.51 0.264,-0.522C0.281,-0.534 0.301,-0.542 0.322,-0.548C0.343,-0.553 0.365,-0.556 0.388,-0.556Z" style="fill:white;fill-rule:nonzero;"/>
                </g>
                <g transform="matrix(64,0,0,64,201.796,245.093)">
                    <path d="M0.967,-0.714L0.785,-0L0.613,-0L0.516,-0.375C0.514,-0.382 0.512,-0.393 0.508,-0.408C0.505,-0.422 0.502,-0.438 0.498,-0.456C0.494,-0.473 0.491,-0.49 0.489,-0.505C0.486,-0.521 0.484,-0.533 0.483,-0.542C0.482,-0.533 0.48,-0.521 0.477,-0.505C0.475,-0.49 0.471,-0.474 0.468,-0.457C0.465,-0.439 0.461,-0.423 0.458,-0.408C0.455,-0.393 0.452,-0.382 0.45,-0.374L0.354,-0L0.182,-0L0,-0.714L0.149,-0.714L0.24,-0.324C0.243,-0.313 0.246,-0.299 0.249,-0.282C0.253,-0.266 0.256,-0.249 0.26,-0.231C0.263,-0.213 0.266,-0.196 0.269,-0.18C0.272,-0.163 0.274,-0.149 0.275,-0.137C0.277,-0.15 0.279,-0.164 0.281,-0.18C0.284,-0.197 0.287,-0.214 0.29,-0.231C0.293,-0.248 0.296,-0.264 0.299,-0.278C0.303,-0.293 0.306,-0.305 0.308,-0.314L0.412,-0.714L0.555,-0.714L0.659,-0.314C0.661,-0.305 0.664,-0.293 0.667,-0.279C0.67,-0.264 0.674,-0.248 0.677,-0.23C0.68,-0.213 0.683,-0.196 0.686,-0.18C0.689,-0.163 0.691,-0.149 0.692,-0.137C0.694,-0.153 0.697,-0.173 0.701,-0.197C0.705,-0.22 0.71,-0.243 0.715,-0.266C0.719,-0.289 0.723,-0.309 0.727,-0.324L0.818,-0.714L0.967,-0.714Z" style="fill:white;fill-rule:nonzero;"/>
                </g>
                <g transform="matrix(64,0,0,64,260.89,245.093)">
                    <path d="M0.303,-0.556C0.354,-0.556 0.397,-0.546 0.434,-0.527C0.47,-0.508 0.498,-0.48 0.518,-0.443C0.538,-0.406 0.548,-0.361 0.548,-0.308L0.548,-0.236L0.196,-0.236C0.197,-0.194 0.21,-0.161 0.234,-0.137C0.257,-0.113 0.29,-0.101 0.332,-0.101C0.367,-0.101 0.399,-0.105 0.428,-0.112C0.457,-0.119 0.486,-0.13 0.517,-0.144L0.517,-0.029C0.49,-0.015 0.462,-0.006 0.432,0C0.403,0.007 0.367,0.01 0.325,0.01C0.271,0.01 0.222,-0 0.18,-0.021C0.138,-0.041 0.105,-0.071 0.081,-0.113C0.057,-0.154 0.045,-0.206 0.045,-0.269C0.045,-0.333 0.056,-0.386 0.077,-0.428C0.099,-0.471 0.129,-0.503 0.168,-0.524C0.207,-0.545 0.252,-0.556 0.303,-0.556ZM0.304,-0.45C0.275,-0.45 0.251,-0.441 0.232,-0.422C0.213,-0.404 0.202,-0.375 0.199,-0.335L0.408,-0.335C0.408,-0.357 0.404,-0.377 0.396,-0.394C0.389,-0.411 0.377,-0.425 0.362,-0.435C0.347,-0.445 0.328,-0.45 0.304,-0.45Z" style="fill:white;fill-rule:nonzero;"/>
                </g>
                <g transform="matrix(64,0,0,64,296.827,245.093)">
                    <path d="M0.227,-0.76L0.227,-0.583C0.227,-0.563 0.226,-0.542 0.225,-0.522C0.224,-0.502 0.223,-0.486 0.221,-0.475L0.227,-0.475C0.241,-0.498 0.261,-0.517 0.286,-0.532C0.31,-0.548 0.342,-0.556 0.382,-0.556C0.443,-0.556 0.493,-0.532 0.531,-0.484C0.569,-0.437 0.588,-0.366 0.588,-0.274C0.588,-0.212 0.579,-0.16 0.562,-0.117C0.544,-0.075 0.519,-0.044 0.488,-0.022C0.456,-0.001 0.42,0.01 0.378,0.01C0.338,0.01 0.306,0.003 0.283,-0.012C0.26,-0.026 0.241,-0.042 0.227,-0.06L0.217,-0.06L0.192,-0L0.078,-0L0.078,-0.76L0.227,-0.76ZM0.334,-0.437C0.308,-0.437 0.287,-0.432 0.272,-0.421C0.257,-0.41 0.246,-0.394 0.239,-0.373C0.232,-0.351 0.228,-0.324 0.227,-0.291L0.227,-0.275C0.227,-0.222 0.235,-0.181 0.25,-0.153C0.266,-0.125 0.295,-0.111 0.336,-0.111C0.367,-0.111 0.391,-0.125 0.409,-0.153C0.427,-0.182 0.436,-0.222 0.436,-0.276C0.436,-0.329 0.427,-0.369 0.409,-0.396C0.39,-0.424 0.366,-0.437 0.334,-0.437Z" style="fill:white;fill-rule:nonzero;"/>
                </g>
                <g transform="matrix(64,0,0,64,352.608,245.093)">
                    <path d="M0.527,-0L0.475,-0.17L0.215,-0.17L0.163,-0L0,-0L0.252,-0.717L0.437,-0.717L0.69,-0L0.527,-0ZM0.439,-0.297L0.387,-0.463C0.384,-0.474 0.364,-0.541 0.358,-0.559C0.353,-0.577 0.348,-0.593 0.345,-0.606C0.342,-0.593 0.337,-0.576 0.332,-0.556C0.326,-0.537 0.321,-0.518 0.315,-0.5C0.31,-0.483 0.306,-0.47 0.304,-0.463L0.253,-0.297L0.439,-0.297Z" style="fill:white;fill-rule:nonzero;"/>
                </g>
                <g transform="matrix(64,0,0,64,393.077,245.093)">
                    <path d="M0.382,-0.556C0.443,-0.556 0.493,-0.532 0.531,-0.484C0.569,-0.437 0.588,-0.366 0.588,-0.274C0.588,-0.212 0.579,-0.16 0.561,-0.118C0.543,-0.076 0.518,-0.044 0.487,-0.022C0.455,-0.001 0.419,0.01 0.378,0.01C0.352,0.01 0.329,0.006 0.31,-0C0.291,-0.007 0.275,-0.016 0.262,-0.026C0.248,-0.037 0.237,-0.048 0.227,-0.06L0.219,-0.06C0.222,-0.047 0.224,-0.034 0.225,-0.02C0.226,-0.006 0.227,0.007 0.227,0.02L0.227,0.24L0.078,0.24L0.078,-0.546L0.199,-0.546L0.22,-0.475L0.227,-0.475C0.237,-0.49 0.249,-0.503 0.263,-0.516C0.277,-0.528 0.294,-0.538 0.313,-0.545C0.333,-0.552 0.356,-0.556 0.382,-0.556ZM0.334,-0.437C0.308,-0.437 0.287,-0.432 0.272,-0.421C0.257,-0.41 0.246,-0.394 0.239,-0.373C0.232,-0.351 0.228,-0.324 0.227,-0.291L0.227,-0.275C0.227,-0.24 0.23,-0.21 0.237,-0.186C0.244,-0.161 0.255,-0.143 0.271,-0.13C0.287,-0.117 0.308,-0.111 0.336,-0.111C0.359,-0.111 0.377,-0.117 0.392,-0.13C0.407,-0.143 0.418,-0.161 0.425,-0.186C0.432,-0.21 0.436,-0.24 0.436,-0.276C0.436,-0.329 0.428,-0.369 0.411,-0.396C0.395,-0.424 0.369,-0.437 0.334,-0.437Z" style="fill:white;fill-rule:nonzero;"/>
                </g>
                <g transform="matrix(64,0,0,64,432.233,245.093)">
                    <path d="M0.382,-0.556C0.443,-0.556 0.493,-0.532 0.531,-0.484C0.569,-0.437 0.588,-0.366 0.588,-0.274C0.588,-0.212 0.579,-0.16 0.561,-0.118C0.543,-0.076 0.518,-0.044 0.487,-0.022C0.455,-0.001 0.419,0.01 0.378,0.01C0.352,0.01 0.329,0.006 0.31,-0C0.291,-0.007 0.275,-0.016 0.262,-0.026C0.248,-0.037 0.237,-0.048 0.227,-0.06L0.219,-0.06C0.222,-0.047 0.224,-0.034 0.225,-0.02C0.226,-0.006 0.227,0.007 0.227,0.02L0.227,0.24L0.078,0.24L0.078,-0.546L0.199,-0.546L0.22,-0.475L0.227,-0.475C0.237,-0.49 0.249,-0.503 0.263,-0.516C0.277,-0.528 0.294,-0.538 0.313,-0.545C0.333,-0.552 0.356,-0.556 0.382,-0.556ZM0.334,-0.437C0.308,-0.437 0.287,-0.432 0.272,-0.421C0.257,-0.41 0.246,-0.394 0.239,-0.373C0.232,-0.351 0.228,-0.324 0.227,-0.291L0.227,-0.275C0.227,-0.24 0.23,-0.21 0.237,-0.186C0.244,-0.161 0.255,-0.143 0.271,-0.13C0.287,-0.117 0.308,-0.111 0.336,-0.111C0.359,-0.111 0.377,-0.117 0.392,-0.13C0.407,-0.143 0.418,-0.161 0.425,-0.186C0.432,-0.21 0.436,-0.24 0.436,-0.276C0.436,-0.329 0.428,-0.369 0.411,-0.396C0.395,-0.424 0.369,-0.437 0.334,-0.437Z" style="fill:white;fill-rule:nonzero;"/>
                </g>
            </g>
        </g>
    </g>
</svg>
